<?xml version="1.0" encoding="UTF-8"?>
<!-- Generator: visioncortex VTracer 0.6.12 -->
<svg version="1.1" xmlns="http://www.w3.org/2000/svg" width="160" height="160">
<path d="M0 0 C9.84 10.15 15.26 25.16 15.44 39.12 C14.42 55.45 8.01 69.52 -3.73 80.91 C-16.26 90.7 -31.73 95.34 -47.5 93.5 C-61.99 91.12 -75.45 83.78 -84.56 72.12 C-93.9 56.91 -97.55 41.79 -93.56 24.12 C-89.07 10.11 -80.8 -2.33 -67.56 -9.25 C-43.95 -21.04 -19.8 -17.77 0 0 Z M-61.5 20 C-68 28.3 -68.7 35.65 -67.56 46.12 C-65.02 55.01 -59.09 60.26 -51.5 65.06 C-43.98 67.8 -34.29 67.4 -27.06 64.12 C-21.08 60.6 -15.43 55.01 -13 48.36 C-11.3 39.72 -11.41 30.97 -15.95 23.28 C-20.05 17.81 -25.68 12.49 -32.56 11.12 C-44.31 9.93 -53.25 11.18 -61.5 20 Z " fill="#000000" transform="translate(120.5625, 41.875)" />
<path d="M122.72 39.79 Q130.37 47.68 134.7 58.93 Q138.86 69.71 139 80.96 Q139 81.02 139 81.07 Q139 81.13 138.99 81.19 Q137.39 107.03 118.92 124.94 Q118.86 125 118.8 125.05 Q118.74 125.1 118.68 125.15 Q98 141.31 72.71 138.35 Q72.68 138.35 72.65 138.35 Q72.61 138.34 72.58 138.34 Q48.07 134.31 33.64 115.85 Q33.58 115.78 33.54 115.71 Q33.49 115.64 33.44 115.57 Q18.3 90.89 24.07 65.34 Q24.09 65.27 24.11 65.21 Q24.12 65.15 24.14 65.08 Q32.13 40.15 51.61 29.96 Q70.21 20.68 88.62 23.19 Q107.04 25.71 122.57 39.64 Q122.61 39.68 122.64 39.71 Q122.68 39.75 122.72 39.79 Z M118.41 43.96 L120.56 41.88 L118.56 44.11 Q104.4 31.4 87.81 29.14 Q71.23 26.87 54.39 35.28 Q37.1 44.32 29.86 66.92 L27 66 L29.93 66.66 Q24.69 89.83 38.56 112.43 L36 114 L38.36 112.15 Q51.36 128.77 73.55 132.41 L73.06 135.38 L73.41 132.4 Q96.25 135.07 114.98 120.43 L116.83 122.79 L114.74 120.64 Q131.55 104.34 133.01 80.81 L136 81 L133 81.04 Q132.87 70.86 129.1 61.08 Q125.21 50.98 118.41 43.96 Z M61.42 63.73 Q57.25 69.05 56.1 74.71 Q55.11 79.65 55.98 87.68 L53 88 L55.88 87.17 Q58.64 96.79 70.67 104.4 L69.06 106.94 L70.09 104.12 Q81.34 108.22 92.26 103.27 L93.5 106 L91.98 103.42 Q101.63 97.73 104.74 89.21 L107.56 90.23 L104.62 89.65 Q107.37 75.73 102.03 66.67 L104.62 65.15 L102.22 66.95 Q95.08 57.46 87.42 55.94 L88 53 L87.7 55.98 Q78.66 55.07 72.99 56.58 Q66.5 58.32 61.25 63.92 L59.06 61.88 L61.42 63.73 Z M56.7 60.02 Q56.74 59.97 56.78 59.92 Q56.83 59.87 56.87 59.83 Q63.29 52.96 71.45 50.78 Q78.17 48.99 88.3 50.02 Q88.37 50.02 88.44 50.03 Q88.51 50.04 88.58 50.06 Q98.5 52.02 107.02 63.35 Q107.07 63.42 107.11 63.49 Q107.16 63.56 107.2 63.63 Q113.69 74.65 110.5 90.82 Q110.48 90.93 110.45 91.04 Q110.42 91.15 110.38 91.26 Q106.53 101.81 95.02 108.58 Q94.95 108.63 94.88 108.66 Q94.81 108.7 94.74 108.73 Q81.58 114.7 68.03 109.76 Q67.88 109.7 67.74 109.63 Q67.59 109.56 67.46 109.47 Q53.5 100.64 50.12 88.83 Q50.08 88.7 50.06 88.58 Q50.03 88.45 50.02 88.32 Q49.04 79.37 50.22 73.53 Q51.65 66.47 56.7 60.02 Z " fill="black" fill-rule="nonzero" />
</svg>
