<?xml version="1.0" encoding="UTF-8"?>
<!-- Generator: visioncortex VTracer 0.6.12 -->
<svg version="1.1" xmlns="http://www.w3.org/2000/svg" width="180" height="120">
<path d="M0 0 C21.45 0 42.9 0 65 0 C65 26.73 65 53.46 65 81 C43.55 81 22.1 81 0 81 C0 54.27 0 27.54 0 0 Z M30 15 C30 31.83 30 48.66 30 66 C36.93 66 43.86 66 51 66 C51 49.17 51 32.34 51 15 C44.07 15 37.14 15 30 15 Z " fill="#000000" transform="translate(20, 20)" />
<path d="M20 15 L85 15 Q87.07 15 88.54 16.46 Q90 17.93 90 20 L90 101 Q90 103.07 88.54 104.54 Q87.07 106 85 106 L20 106 Q17.93 106 16.46 104.54 Q15 103.07 15 101 L15 101 L15 20 Q15 17.93 16.46 16.46 Q17.93 15 20 15 Z M20 25 L20 20 L25 20 L25 101 L25 101 L20 101 L20 96 L85 96 L85 101 L80 101 L80 20 L85 20 L85 25 L20 25 Z M55 35 L55 86 L50 86 L50 81 L71 81 L71 86 L66 86 L66 35 L71 35 L71 40 L50 40 L50 35 L55 35 Z M45 35 Q45 32.93 46.46 31.46 Q47.93 30 50 30 L71 30 Q73.07 30 74.54 31.46 Q76 32.93 76 35 L76 86 Q76 88.07 74.54 89.54 Q73.07 91 71 91 L50 91 Q47.93 91 46.46 89.54 Q45 88.07 45 86 L45 35 Z " fill="black" fill-rule="nonzero" />
<path d="M0 0 C21.45 0 42.9 0 65 0 C65 26.73 65 53.46 65 81 C43.55 81 22.1 81 0 81 C0 54.27 0 27.54 0 0 Z M14 15 C14 31.83 14 48.66 14 66 C20.93 66 27.86 66 35 66 C35 49.17 35 32.34 35 15 C28.07 15 21.14 15 14 15 Z " fill="#000000" transform="translate(96, 20)" />
<path d="M96 15 L161 15 Q163.07 15 164.54 16.46 Q166 17.93 166 20 L166 101 Q166 103.07 164.54 104.54 Q163.07 106 161 106 L96 106 Q93.93 106 92.46 104.54 Q91 103.07 91 101 L91 101 L91 20 Q91 17.93 92.46 16.46 Q93.93 15 96 15 Z M96 25 L96 20 L101 20 L101 101 L101 101 L96 101 L96 96 L161 96 L161 101 L156 101 L156 20 L161 20 L161 25 L96 25 Z M115 35 L115 86 L110 86 L110 81 L131 81 L131 86 L126 86 L126 35 L131 35 L131 40 L110 40 L110 35 L115 35 Z M105 35 Q105 32.93 106.46 31.46 Q107.93 30 110 30 L131 30 Q133.07 30 134.54 31.46 Q136 32.93 136 35 L136 86 Q136 88.07 134.54 89.54 Q133.07 91 131 91 L110 91 Q107.93 91 106.46 89.54 Q105 88.07 105 86 L105 35 Z " fill="black" fill-rule="nonzero" />
</svg>
